<mxfile host="app.diagrams.net" modified="2023-02-08T16:30:16.604Z" agent="5.0 (Windows NT 10.0; Win64; x64) AppleWebKit/537.36 (KHTML, like Gecko) Chrome/109.0.0.0 Safari/537.36" etag="eQ2otLO_3SuLSyfB2A2T" version="20.8.1" type="github">
  <diagram id="f-sLK28mm7AxxMxkEgao" name="페이지-1">
    <mxGraphModel dx="1434" dy="764" grid="1" gridSize="10" guides="1" tooltips="1" connect="1" arrows="1" fold="1" page="1" pageScale="1" pageWidth="1169" pageHeight="827" math="0" shadow="0">
      <root>
        <mxCell id="0" />
        <mxCell id="1" parent="0" />
        <mxCell id="PbKweQd9NpCZTFS-8Njj-5" style="edgeStyle=orthogonalEdgeStyle;rounded=0;orthogonalLoop=1;jettySize=auto;html=1;entryX=0;entryY=0.5;entryDx=0;entryDy=0;strokeWidth=2;fontFamily=Jua;fontSource=https%3A%2F%2Ffonts.googleapis.com%2Fcss%3Ffamily%3DJua;fontSize=13;" parent="1" source="PbKweQd9NpCZTFS-8Njj-1" target="PbKweQd9NpCZTFS-8Njj-3" edge="1">
          <mxGeometry relative="1" as="geometry" />
        </mxCell>
        <mxCell id="PbKweQd9NpCZTFS-8Njj-1" value="차량 선택" style="rounded=1;whiteSpace=wrap;html=1;fillColor=#fff2cc;strokeColor=#d6b656;strokeWidth=2;fontFamily=Jua;fontSource=https%3A%2F%2Ffonts.googleapis.com%2Fcss%3Ffamily%3DJua;fontSize=13;" parent="1" vertex="1">
          <mxGeometry x="120" y="440" width="120" height="60" as="geometry" />
        </mxCell>
        <mxCell id="PbKweQd9NpCZTFS-8Njj-7" style="edgeStyle=orthogonalEdgeStyle;rounded=0;orthogonalLoop=1;jettySize=auto;html=1;entryX=0;entryY=0.5;entryDx=0;entryDy=0;strokeWidth=2;fontFamily=Jua;fontSource=https%3A%2F%2Ffonts.googleapis.com%2Fcss%3Ffamily%3DJua;fontSize=13;" parent="1" source="PbKweQd9NpCZTFS-8Njj-2" target="PbKweQd9NpCZTFS-8Njj-4" edge="1">
          <mxGeometry relative="1" as="geometry" />
        </mxCell>
        <mxCell id="PbKweQd9NpCZTFS-8Njj-10" style="edgeStyle=orthogonalEdgeStyle;rounded=0;orthogonalLoop=1;jettySize=auto;html=1;entryX=0;entryY=0.5;entryDx=0;entryDy=0;strokeWidth=2;fontFamily=Jua;fontSource=https%3A%2F%2Ffonts.googleapis.com%2Fcss%3Ffamily%3DJua;fontSize=13;" parent="1" source="PbKweQd9NpCZTFS-8Njj-2" target="PbKweQd9NpCZTFS-8Njj-8" edge="1">
          <mxGeometry relative="1" as="geometry" />
        </mxCell>
        <mxCell id="PbKweQd9NpCZTFS-8Njj-2" value="res (옵션)" style="rounded=1;whiteSpace=wrap;html=1;fillColor=#d5e8d4;strokeColor=#82b366;strokeWidth=2;fontFamily=Jua;fontSource=https%3A%2F%2Ffonts.googleapis.com%2Fcss%3Ffamily%3DJua;fontSize=13;" parent="1" vertex="1">
          <mxGeometry x="420" y="360" width="120" height="60" as="geometry" />
        </mxCell>
        <mxCell id="PbKweQd9NpCZTFS-8Njj-6" style="edgeStyle=orthogonalEdgeStyle;rounded=0;orthogonalLoop=1;jettySize=auto;html=1;strokeWidth=2;fontFamily=Jua;fontSource=https%3A%2F%2Ffonts.googleapis.com%2Fcss%3Ffamily%3DJua;fontSize=13;" parent="1" source="PbKweQd9NpCZTFS-8Njj-3" target="PbKweQd9NpCZTFS-8Njj-2" edge="1">
          <mxGeometry relative="1" as="geometry" />
        </mxCell>
        <mxCell id="PbKweQd9NpCZTFS-8Njj-3" value="req (차 이름)" style="rounded=1;whiteSpace=wrap;html=1;fillColor=#d5e8d4;strokeColor=#82b366;strokeWidth=2;fontFamily=Jua;fontSource=https%3A%2F%2Ffonts.googleapis.com%2Fcss%3Ffamily%3DJua;fontSize=13;" parent="1" vertex="1">
          <mxGeometry x="280" y="360" width="120" height="60" as="geometry" />
        </mxCell>
        <mxCell id="PbKweQd9NpCZTFS-8Njj-4" value="옵션 렌더링&lt;br style=&quot;font-size: 13px;&quot;&gt;promise.all" style="rounded=1;whiteSpace=wrap;html=1;fillColor=#ffe6cc;strokeColor=#d79b00;strokeWidth=2;fontFamily=Jua;fontSource=https%3A%2F%2Ffonts.googleapis.com%2Fcss%3Ffamily%3DJua;fontSize=13;" parent="1" vertex="1">
          <mxGeometry x="580" y="440" width="120" height="60" as="geometry" />
        </mxCell>
        <mxCell id="PbKweQd9NpCZTFS-8Njj-14" style="edgeStyle=orthogonalEdgeStyle;rounded=0;orthogonalLoop=1;jettySize=auto;html=1;entryX=0;entryY=0.5;entryDx=0;entryDy=0;strokeWidth=2;fontFamily=Jua;fontSource=https%3A%2F%2Ffonts.googleapis.com%2Fcss%3Ffamily%3DJua;fontSize=13;" parent="1" source="PbKweQd9NpCZTFS-8Njj-8" target="PbKweQd9NpCZTFS-8Njj-13" edge="1">
          <mxGeometry relative="1" as="geometry" />
        </mxCell>
        <mxCell id="PbKweQd9NpCZTFS-8Njj-8" value="req &lt;br style=&quot;font-size: 13px;&quot;&gt;(차,옵션,날짜)" style="rounded=1;whiteSpace=wrap;html=1;fillColor=#d5e8d4;strokeColor=#82b366;strokeWidth=2;fontFamily=Jua;fontSource=https%3A%2F%2Ffonts.googleapis.com%2Fcss%3Ffamily%3DJua;fontSize=13;" parent="1" vertex="1">
          <mxGeometry x="580" y="360" width="120" height="60" as="geometry" />
        </mxCell>
        <mxCell id="PbKweQd9NpCZTFS-8Njj-20" style="edgeStyle=orthogonalEdgeStyle;rounded=0;orthogonalLoop=1;jettySize=auto;html=1;entryX=0.5;entryY=0;entryDx=0;entryDy=0;strokeWidth=2;fontFamily=Jua;fontSource=https%3A%2F%2Ffonts.googleapis.com%2Fcss%3Ffamily%3DJua;fontSize=13;" parent="1" source="PbKweQd9NpCZTFS-8Njj-11" target="PbKweQd9NpCZTFS-8Njj-8" edge="1">
          <mxGeometry relative="1" as="geometry" />
        </mxCell>
        <mxCell id="PbKweQd9NpCZTFS-8Njj-11" value="옵션선택" style="rounded=1;whiteSpace=wrap;html=1;fillColor=#fff2cc;strokeColor=#d6b656;strokeWidth=2;fontFamily=Jua;fontSource=https%3A%2F%2Ffonts.googleapis.com%2Fcss%3Ffamily%3DJua;fontSize=13;" parent="1" vertex="1">
          <mxGeometry x="120" y="260" width="120" height="60" as="geometry" />
        </mxCell>
        <mxCell id="PbKweQd9NpCZTFS-8Njj-16" style="edgeStyle=orthogonalEdgeStyle;rounded=0;orthogonalLoop=1;jettySize=auto;html=1;entryX=0;entryY=0.5;entryDx=0;entryDy=0;strokeWidth=2;fontFamily=Jua;fontSource=https%3A%2F%2Ffonts.googleapis.com%2Fcss%3Ffamily%3DJua;fontSize=13;" parent="1" source="PbKweQd9NpCZTFS-8Njj-13" target="PbKweQd9NpCZTFS-8Njj-15" edge="1">
          <mxGeometry relative="1" as="geometry" />
        </mxCell>
        <mxCell id="PbKweQd9NpCZTFS-8Njj-13" value="res&lt;br style=&quot;font-size: 13px;&quot;&gt;(차,옵션,날짜,&lt;br style=&quot;font-size: 13px;&quot;&gt;공유자,글제목,위치)" style="rounded=1;whiteSpace=wrap;html=1;fillColor=#d5e8d4;strokeColor=#82b366;strokeWidth=2;fontFamily=Jua;fontSource=https%3A%2F%2Ffonts.googleapis.com%2Fcss%3Ffamily%3DJua;fontSize=13;" parent="1" vertex="1">
          <mxGeometry x="720" y="360" width="120" height="60" as="geometry" />
        </mxCell>
        <mxCell id="PbKweQd9NpCZTFS-8Njj-18" style="edgeStyle=orthogonalEdgeStyle;rounded=0;orthogonalLoop=1;jettySize=auto;html=1;entryX=0;entryY=0.5;entryDx=0;entryDy=0;strokeWidth=2;fontFamily=Jua;fontSource=https%3A%2F%2Ffonts.googleapis.com%2Fcss%3Ffamily%3DJua;fontSize=13;" parent="1" source="PbKweQd9NpCZTFS-8Njj-15" target="PbKweQd9NpCZTFS-8Njj-17" edge="1">
          <mxGeometry relative="1" as="geometry" />
        </mxCell>
        <mxCell id="PbKweQd9NpCZTFS-8Njj-15" value="dispatch&lt;br style=&quot;font-size: 13px;&quot;&gt;지도 사이즈에 따른&lt;br style=&quot;font-size: 13px;&quot;&gt;필터링" style="rounded=1;whiteSpace=wrap;html=1;fillColor=#dae8fc;strokeColor=#6c8ebf;strokeWidth=2;fontFamily=Jua;fontSource=https%3A%2F%2Ffonts.googleapis.com%2Fcss%3Ffamily%3DJua;fontSize=13;" parent="1" vertex="1">
          <mxGeometry x="880" y="520" width="120" height="60" as="geometry" />
        </mxCell>
        <mxCell id="PbKweQd9NpCZTFS-8Njj-17" value="지도 렌더링&lt;br style=&quot;font-size: 13px;&quot;&gt;게시글 렌더링" style="rounded=1;whiteSpace=wrap;html=1;fillColor=#ffe6cc;strokeColor=#d79b00;strokeWidth=2;fontFamily=Jua;fontSource=https%3A%2F%2Ffonts.googleapis.com%2Fcss%3Ffamily%3DJua;fontSize=13;" parent="1" vertex="1">
          <mxGeometry x="1040" y="440" width="120" height="60" as="geometry" />
        </mxCell>
        <mxCell id="PbKweQd9NpCZTFS-8Njj-22" style="edgeStyle=orthogonalEdgeStyle;rounded=0;orthogonalLoop=1;jettySize=auto;html=1;entryX=0.5;entryY=0;entryDx=0;entryDy=0;strokeWidth=2;fontFamily=Jua;fontSource=https%3A%2F%2Ffonts.googleapis.com%2Fcss%3Ffamily%3DJua;fontSize=13;" parent="1" source="PbKweQd9NpCZTFS-8Njj-21" target="PbKweQd9NpCZTFS-8Njj-8" edge="1">
          <mxGeometry relative="1" as="geometry" />
        </mxCell>
        <mxCell id="PbKweQd9NpCZTFS-8Njj-21" value="날짜선택" style="rounded=1;whiteSpace=wrap;html=1;fillColor=#fff2cc;strokeColor=#d6b656;strokeWidth=2;fontFamily=Jua;fontSource=https%3A%2F%2Ffonts.googleapis.com%2Fcss%3Ffamily%3DJua;fontSize=13;" parent="1" vertex="1">
          <mxGeometry x="120" y="180" width="120" height="60" as="geometry" />
        </mxCell>
        <mxCell id="PbKweQd9NpCZTFS-8Njj-23" value="{&lt;br&gt;&lt;div style=&quot;&quot;&gt;&lt;span style=&quot;background-color: initial; white-space: pre;&quot;&gt;	&lt;/span&gt;&lt;span style=&quot;background-color: initial;&quot;&gt;차 이름: &lt;span style=&quot;white-space: pre;&quot;&gt;	&lt;span style=&quot;white-space: pre;&quot;&gt;	&lt;/span&gt;&lt;/span&gt;string&lt;br&gt;&lt;span style=&quot;white-space: pre;&quot;&gt;	&lt;/span&gt;옵션: &lt;span style=&quot;white-space: pre;&quot;&gt;	&lt;span style=&quot;white-space: pre;&quot;&gt;	&lt;/span&gt;&lt;/span&gt;object[]&lt;br&gt;&lt;span style=&quot;white-space: pre;&quot;&gt;	&lt;/span&gt;선택옵션:&lt;span style=&quot;white-space: pre;&quot;&gt;	&lt;span style=&quot;white-space: pre;&quot;&gt;	&lt;/span&gt;&lt;/span&gt;object[]&lt;br&gt;&lt;span style=&quot;white-space: pre;&quot;&gt;	&lt;/span&gt;날짜: &lt;span style=&quot;white-space: pre;&quot;&gt;	&lt;span style=&quot;white-space: pre;&quot;&gt;	&lt;/span&gt;&lt;/span&gt;string[]&lt;br&gt;&lt;span style=&quot;white-space: pre;&quot;&gt;	&lt;/span&gt;현재좌표:&lt;span style=&quot;white-space: pre;&quot;&gt;	&lt;span style=&quot;white-space: pre;&quot;&gt;	&lt;/span&gt;&lt;/span&gt;object[]&lt;br&gt;&lt;span style=&quot;white-space: pre;&quot;&gt;	&lt;/span&gt;데이터:&lt;span style=&quot;white-space: pre;&quot;&gt;	&lt;span style=&quot;white-space: pre;&quot;&gt;	&lt;/span&gt;&lt;/span&gt;object[]&lt;br&gt;&lt;span style=&quot;white-space: pre;&quot;&gt;	&lt;/span&gt;필터데이터:&lt;span style=&quot;white-space: pre;&quot;&gt;	&lt;/span&gt;object[]&lt;br&gt;&lt;span style=&quot;white-space: pre;&quot;&gt;	&lt;/span&gt;&amp;nbsp;&lt;/span&gt;&lt;/div&gt;}" style="shape=cylinder3;whiteSpace=wrap;html=1;boundedLbl=1;backgroundOutline=1;size=15;align=left;" parent="1" vertex="1">
          <mxGeometry x="970" y="60" width="240" height="210" as="geometry" />
        </mxCell>
      </root>
    </mxGraphModel>
  </diagram>
</mxfile>
